<?xml version="1.0" standalone="no"?>
<!DOCTYPE svg PUBLIC "-//W3C//DTD SVG 20010904//EN"
 "http://www.w3.org/TR/2001/REC-SVG-20010904/DTD/svg10.dtd">
<svg version="1.0" xmlns="http://www.w3.org/2000/svg"
 width="1024.000000pt" height="1024.000000pt" viewBox="0 0 1024.000000 1024.000000"
 preserveAspectRatio="xMidYMid meet">

<g transform="translate(0.000000,1024.000000) scale(0.100000,-0.100000)"
fill="#000000" stroke="none">
<path d="M4915 10199 c-94 -8 -184 -24 -223 -40 -13 -5 -37 -9 -55 -9 -18 0
-97 -16 -177 -34 -80 -19 -206 -45 -280 -57 -186 -29 -306 -55 -325 -69 -5 -4
-37 -15 -70 -25 -33 -9 -74 -24 -92 -31 -17 -8 -36 -14 -42 -14 -6 0 -19 -4
-29 -9 -35 -20 -131 -61 -140 -61 -5 0 -49 -18 -98 -41 -49 -22 -98 -44 -109
-48 -11 -4 -58 -26 -105 -48 -47 -23 -102 -46 -122 -53 -21 -6 -40 -16 -43
-21 -4 -5 -13 -9 -22 -9 -8 0 -36 -14 -60 -31 -25 -16 -89 -53 -142 -80 -53
-27 -116 -65 -141 -83 -25 -19 -52 -35 -61 -35 -8 -1 -26 -13 -40 -27 -13 -14
-48 -39 -77 -56 -29 -17 -73 -47 -97 -67 -50 -40 -95 -74 -173 -129 -82 -56
-322 -256 -372 -308 -62 -65 -114 -115 -157 -151 -57 -48 -142 -113 -147 -113
-2 0 -46 43 -97 96 -52 53 -110 107 -129 119 -33 22 -262 228 -305 275 -11 12
-31 32 -45 45 -120 112 -197 201 -281 323 -16 23 -33 42 -38 42 -5 0 -14 -24
-21 -52 -7 -29 -25 -91 -42 -138 -34 -99 -40 -119 -67 -220 -20 -78 -25 -94
-61 -195 -12 -33 -23 -74 -25 -91 -2 -18 -8 -41 -14 -52 -6 -11 -13 -48 -16
-83 -4 -34 -10 -70 -16 -80 -5 -10 -9 -39 -9 -66 0 -26 -5 -65 -11 -86 -26
-96 -9 -396 36 -592 8 -38 18 -88 22 -110 3 -22 9 -44 13 -50 5 -5 17 -39 29
-74 12 -35 42 -98 67 -139 l47 -74 -23 -52 c-12 -28 -27 -64 -32 -81 -6 -16
-19 -48 -29 -70 -11 -22 -19 -44 -19 -49 0 -5 -13 -35 -30 -67 -16 -32 -46
-109 -66 -171 -20 -62 -49 -151 -66 -198 -16 -47 -33 -101 -38 -120 -4 -19
-16 -60 -25 -90 -9 -30 -20 -75 -25 -100 -5 -25 -13 -65 -19 -90 -26 -110 -44
-189 -57 -245 -19 -77 -22 -95 -29 -179 -3 -38 -8 -72 -11 -77 -29 -48 -38
-1038 -12 -1274 8 -71 18 -137 21 -145 4 -8 9 -33 11 -55 5 -37 25 -142 47
-245 5 -25 14 -67 18 -95 5 -27 26 -97 46 -155 20 -58 40 -118 45 -135 26
-101 75 -240 124 -353 20 -46 36 -90 36 -97 0 -7 7 -18 15 -25 8 -7 15 -21 15
-31 0 -11 11 -40 24 -66 13 -27 67 -136 120 -243 53 -107 118 -229 146 -270
27 -41 50 -79 50 -83 0 -7 56 -97 121 -193 8 -12 45 -68 83 -125 82 -123 133
-179 202 -224 47 -30 52 -37 59 -81 13 -84 4 -269 -16 -305 -26 -50 33 -276
105 -394 39 -65 126 -160 190 -208 28 -21 69 -56 91 -77 47 -45 121 -83 190
-98 94 -21 160 -28 190 -21 17 4 68 15 115 24 93 19 188 62 208 94 17 30 36
26 95 -17 164 -120 529 -313 827 -439 19 -8 53 -23 75 -33 43 -19 125 -52 190
-77 22 -9 49 -19 60 -23 11 -5 31 -11 45 -14 14 -3 77 -19 140 -36 63 -17 133
-35 155 -39 22 -5 85 -21 140 -36 55 -14 120 -30 145 -35 25 -5 79 -17 120
-26 147 -31 153 -32 510 -64 135 -12 590 5 700 25 19 4 76 11 125 15 208 19
337 41 440 75 54 18 104 31 175 45 55 11 155 34 235 54 33 8 103 31 155 51 52
20 109 40 125 45 57 16 150 52 220 84 39 18 81 37 95 41 29 9 229 105 280 134
39 22 201 112 240 133 32 17 66 38 168 107 l83 55 47 -27 c142 -81 143 -81
312 -82 169 0 193 5 325 62 143 62 163 73 214 119 53 48 148 182 158 223 3 14
16 47 29 73 13 26 24 59 24 73 0 15 5 36 12 48 14 27 14 244 -1 290 -14 42
-41 160 -41 176 0 8 43 58 95 112 52 55 102 111 112 127 10 15 46 64 80 109
35 45 63 85 63 88 0 7 36 60 61 90 10 11 29 43 44 70 15 28 35 59 45 70 10 11
28 40 40 65 13 25 50 92 83 149 53 92 94 175 172 346 41 91 55 126 55 136 0 5
14 40 31 77 52 112 57 125 74 187 9 33 23 74 30 90 8 17 19 50 26 75 7 25 16
50 20 55 7 10 27 80 33 115 1 8 7 24 13 35 6 11 14 40 18 65 4 25 14 70 22
100 26 96 42 174 72 357 5 28 12 57 16 63 13 21 26 361 27 685 0 297 -11 534
-28 575 -3 8 -10 42 -15 75 -24 172 -25 176 -60 305 -5 19 -11 49 -13 66 -2
17 -7 37 -11 44 -4 7 -14 43 -22 79 -7 36 -16 75 -18 86 -3 11 -8 34 -11 50
-4 17 -13 39 -20 50 -8 11 -14 28 -14 39 0 11 -6 38 -14 61 -8 22 -19 60 -26
85 -18 72 -31 112 -47 150 -8 19 -20 46 -25 60 -32 80 -55 131 -156 340 -38
80 -81 170 -96 202 -15 31 -36 64 -47 74 -10 9 -19 23 -19 30 0 8 28 44 61 81
34 38 69 79 77 93 9 14 34 46 57 71 22 26 60 75 85 109 25 34 57 76 73 94 15
19 27 38 27 43 0 6 17 30 38 54 63 73 128 173 182 279 20 41 28 72 29 121 2
65 2 66 -45 118 -47 53 -48 53 -93 47 -25 -3 -62 -8 -81 -9 -44 -5 -149 -33
-164 -46 -6 -5 -33 -21 -61 -36 -87 -49 -113 -70 -254 -206 -76 -74 -156 -146
-177 -162 -34 -24 -39 -26 -53 -12 -13 13 -13 18 7 42 12 16 29 42 37 58 8 17
29 48 45 70 17 22 47 64 67 94 20 29 69 86 109 127 80 80 92 109 80 191 -12
93 -66 137 -167 137 -63 1 -124 -22 -184 -69 -22 -18 -51 -38 -64 -45 -13 -7
-52 -38 -86 -69 -114 -103 -199 -171 -215 -170 -8 0 -26 13 -38 30 -28 35 -28
36 68 144 57 64 86 104 192 264 94 143 127 264 93 344 -23 54 -65 77 -145 77
-56 0 -76 -6 -145 -40 -82 -42 -127 -69 -181 -114 -18 -14 -37 -26 -43 -26 -6
0 -11 -4 -11 -9 0 -14 -82 -97 -110 -111 -26 -14 -69 -47 -149 -117 -26 -24
-53 -43 -58 -43 -6 0 -23 16 -37 35 -15 19 -41 42 -59 51 -18 9 -57 33 -87 53
-51 34 -86 59 -301 216 -45 33 -89 65 -98 70 -9 6 -41 27 -71 46 -96 63 -279
169 -350 203 -55 27 -87 43 -137 71 -16 9 -39 20 -53 25 -14 6 -32 14 -40 19
-22 13 -151 68 -180 76 -14 4 -33 14 -43 23 -9 8 -32 16 -50 17 -33 3 -75 16
-137 43 -63 28 -135 51 -157 52 -12 0 -25 5 -28 10 -3 6 -14 10 -23 10 -9 0
-30 7 -46 15 -15 8 -38 15 -51 15 -12 0 -28 7 -35 15 -7 8 -22 15 -34 15 -11
0 -43 7 -71 16 -70 22 -163 45 -210 51 -22 3 -44 9 -50 14 -5 5 -20 9 -35 9
-14 0 -57 7 -95 15 -39 8 -90 15 -115 15 -25 0 -67 8 -95 19 -27 10 -84 22
-125 25 -41 4 -88 11 -105 16 -126 36 -350 53 -510 39z m410 -284 c193 -29
304 -61 515 -150 198 -84 448 -266 613 -446 81 -87 230 -306 285 -416 51 -101
136 -337 163 -448 58 -246 67 -623 19 -830 -5 -22 -16 -71 -25 -110 -19 -80
-64 -215 -76 -229 -5 -6 -9 -16 -9 -24 0 -24 -107 -240 -156 -315 -65 -98
-128 -172 -258 -303 -112 -112 -167 -155 -356 -282 -135 -90 -241 -141 -393
-190 -162 -53 -184 -58 -307 -78 -272 -44 -614 0 -919 118 -69 26 -128 48
-132 48 -14 0 -268 145 -314 180 -76 57 -226 196 -298 275 -99 108 -219 273
-256 350 -171 356 -218 512 -242 810 -11 130 -10 170 4 300 46 403 135 666
316 926 156 225 316 381 546 536 111 74 156 99 265 145 169 72 296 108 455
127 50 6 101 13 115 15 71 10 355 4 445 -9z m1415 -406 c83 -23 365 -156 529
-251 165 -95 468 -292 553 -361 43 -34 118 -93 167 -132 50 -38 90 -76 90 -83
1 -7 -27 -39 -61 -70 -166 -152 -485 -449 -503 -467 -11 -11 -58 -54 -105 -95
-47 -40 -109 -96 -137 -124 -32 -30 -53 -44 -54 -36 0 8 -2 85 -4 170 -1 85
-8 191 -15 235 -18 126 -77 375 -111 472 -73 207 -253 508 -421 702 -21 24
-38 48 -38 52 0 14 29 11 110 -12z m-3255 -10 c4 -6 -11 -31 -32 -57 -22 -26
-82 -110 -133 -187 -205 -310 -325 -618 -380 -974 -25 -158 -27 -434 -5 -584
18 -120 76 -363 111 -460 25 -72 30 -107 14 -107 -5 0 -14 8 -19 18 -13 24
-276 281 -396 387 -55 49 -125 111 -155 139 -31 28 -105 96 -165 151 -61 55
-177 165 -260 246 -82 80 -174 167 -202 194 -29 26 -53 54 -53 61 0 16 61 93
142 180 165 176 691 580 958 734 133 78 523 270 546 270 13 0 26 -5 29 -11z
m5395 -485 c0 -20 -162 -232 -210 -274 -3 -3 -30 -34 -60 -70 -30 -36 -91
-105 -136 -155 -45 -49 -133 -149 -195 -221 -63 -72 -161 -185 -219 -250 -58
-66 -127 -148 -155 -184 -93 -124 -285 -335 -555 -615 -157 -162 -170 -185
-146 -250 10 -24 33 -58 52 -75 44 -38 101 -41 163 -7 23 12 152 132 289 267
136 135 341 336 457 445 115 110 252 241 305 291 116 112 179 165 385 325 166
129 275 209 287 209 6 0 -136 -220 -194 -300 -18 -25 -53 -74 -78 -111 -105
-153 -247 -323 -495 -589 -99 -107 -238 -257 -310 -334 -71 -77 -195 -206
-275 -285 -80 -80 -153 -156 -162 -170 -36 -52 -14 -152 40 -187 41 -27 131
-22 185 9 23 14 94 81 157 148 191 205 969 979 1065 1060 134 113 293 240 397
318 51 38 140 112 198 165 101 92 139 113 132 71 -5 -26 -91 -141 -182 -240
-110 -121 -151 -172 -221 -270 -85 -121 -229 -302 -315 -395 -23 -25 -88 -99
-145 -165 -56 -66 -154 -176 -217 -245 -63 -69 -146 -161 -186 -204 -121 -135
-169 -187 -272 -296 -54 -58 -138 -150 -186 -205 -47 -55 -155 -170 -240 -255
-141 -141 -166 -162 -292 -239 -200 -122 -293 -150 -560 -171 -242 -19 -351
-55 -616 -205 -167 -94 -186 -110 -387 -306 -72 -71 -136 -129 -143 -129 -9 0
-10 22 -3 88 17 185 2 250 -77 313 -22 18 -40 37 -40 43 0 6 22 26 49 44 27
18 111 97 188 175 188 193 253 304 291 500 l17 89 65 51 c367 287 655 697 794
1127 27 83 77 166 119 195 11 8 131 124 266 257 243 240 482 465 666 628 28
24 126 114 219 199 92 86 194 175 225 199 31 24 88 74 126 111 103 99 135 117
135 75z m-8040 -169 c31 -33 96 -96 146 -139 49 -43 154 -141 234 -216 152
-143 301 -280 511 -471 70 -63 189 -172 266 -244 178 -167 335 -311 398 -365
66 -57 294 -263 469 -425 306 -283 464 -420 611 -532 110 -83 308 -267 505
-469 168 -172 395 -387 463 -437 53 -40 87 -76 87 -92 0 -8 -37 -33 -82 -57
-95 -49 -155 -99 -175 -145 -26 -63 -18 -167 29 -366 27 -115 15 -181 -44
-253 -22 -27 -49 -66 -59 -87 -40 -76 -145 -167 -196 -167 -10 0 -52 34 -93
76 -41 42 -129 119 -195 172 -66 53 -179 150 -250 217 -72 66 -162 147 -200
180 -102 87 -184 164 -230 213 -22 24 -92 92 -155 150 -63 58 -176 163 -250
232 -74 70 -205 189 -290 266 -85 76 -231 211 -325 300 -172 162 -201 189
-495 461 -230 211 -413 400 -545 563 -196 242 -280 411 -361 725 -28 106 -29
118 -28 350 0 274 19 400 90 612 31 92 32 92 72 47 19 -21 61 -66 92 -99z
m7720 -627 c0 -15 -16 -36 -42 -58 -24 -19 -68 -59 -100 -88 -36 -34 -63 -52
-75 -50 -15 3 -11 12 26 48 24 25 68 73 99 108 57 65 92 80 92 40z m803 -1081
c32 -50 123 -250 186 -408 32 -81 138 -438 164 -554 9 -38 27 -117 41 -175 39
-170 45 -198 65 -345 29 -202 41 -381 41 -620 0 -245 -11 -379 -45 -578 -51
-296 -84 -430 -185 -754 -67 -212 -311 -744 -402 -875 -10 -14 -18 -28 -18
-31 0 -19 -171 -288 -249 -392 -58 -77 -66 -85 -85 -85 -15 0 -21 -21 -17 -62
1 -10 -3 -18 -8 -18 -6 0 -11 -7 -11 -15 0 -20 -38 -95 -48 -95 -14 0 -56 33
-142 110 -47 42 -125 108 -175 146 -49 38 -100 78 -111 90 -12 11 -44 38 -70
60 -27 21 -51 41 -54 44 -3 3 -34 28 -69 55 -35 28 -123 104 -195 170 -72 66
-153 139 -180 163 -27 23 -47 44 -45 46 5 4 219 79 404 142 374 128 694 353
908 639 72 97 179 297 241 452 36 90 101 340 133 509 24 128 24 524 0 794 -23
265 -72 550 -94 550 -27 0 -155 -44 -310 -106 -103 -41 -233 -90 -288 -109
-123 -41 -339 -136 -420 -185 -33 -20 -99 -57 -146 -83 -226 -122 -487 -352
-683 -602 -89 -113 -194 -265 -238 -345 -33 -60 -126 -271 -150 -340 -49 -142
-78 -351 -78 -567 0 -68 -3 -123 -7 -123 -5 0 -93 84 -198 187 -104 102 -219
209 -255 236 -36 27 -112 93 -169 146 -58 53 -141 129 -185 170 -150 138 -196
188 -190 206 5 11 2 16 -7 15 -28 -4 -39 0 -39 16 0 13 3 14 15 4 18 -15 54
-5 37 12 -20 20 -1 38 39 38 28 0 39 4 39 15 0 8 -8 15 -17 15 -13 0 -14 3 -5
12 7 7 12 20 12 30 0 16 10 18 85 18 50 0 85 4 85 10 0 6 -7 10 -15 10 -8 0
-15 5 -15 10 0 6 9 10 20 10 13 0 18 5 14 15 -8 19 22 31 40 16 7 -6 16 -8 19
-4 4 3 7 2 7 -3 0 -17 -22 -33 -36 -27 -8 3 -14 1 -14 -5 0 -5 10 -12 23 -16
17 -4 32 5 67 42 25 26 68 65 95 86 73 58 98 88 83 99 -10 7 -10 10 0 14 19 8
15 35 -5 31 -13 -3 -18 -13 -17 -36 1 -21 -3 -32 -12 -32 -8 0 -14 3 -14 8 -2
39 -14 88 -24 95 -7 5 -3 14 14 27 32 25 44 25 30 0 -13 -25 -4 -63 13 -53 6
4 21 8 34 9 26 3 32 -23 11 -44 -9 -9 -9 -12 3 -12 8 0 19 10 24 23 6 12 18
21 28 21 28 -3 19 14 -10 19 -26 4 -26 4 4 6 18 0 47 10 65 21 18 11 44 20 58
21 14 0 19 3 13 6 -26 10 -12 23 27 23 21 0 45 6 52 14 10 10 32 12 91 8 69
-4 77 -3 71 12 -5 12 0 16 16 16 16 0 20 -4 16 -15 -4 -13 7 -15 70 -15 l74 0
-6 25 c-6 25 -5 26 35 23 41 -3 59 -18 21 -18 -11 0 -20 -4 -20 -8 0 -11 92
-3 106 9 19 16 4 59 -20 59 -13 0 -17 3 -9 8 8 5 9 12 2 22 -6 10 -11 11 -16
4 -9 -12 -83 -16 -83 -4 0 4 24 11 53 15 28 4 60 12 71 17 13 7 21 6 26 -3 6
-9 12 -9 24 4 9 8 32 21 51 27 40 13 225 118 299 169 137 95 364 314 555 536
80 94 193 219 251 280 171 179 242 255 316 340 105 121 130 149 245 274 92 99
168 188 203 236 15 20 32 7 69 -48z m-8529 -158 c30 -51 161 -193 385 -417
187 -188 288 -284 497 -471 28 -25 89 -80 135 -122 46 -42 107 -95 134 -119
28 -23 147 -136 265 -250 118 -114 247 -234 285 -267 39 -33 108 -99 154 -147
82 -84 311 -304 441 -422 36 -32 97 -88 135 -124 39 -36 95 -87 125 -114 30
-26 109 -101 175 -165 66 -64 144 -136 173 -160 28 -24 52 -50 52 -57 0 -7
-12 -22 -26 -33 -15 -12 -72 -63 -128 -115 -56 -51 -120 -110 -144 -131 -24
-21 -92 -87 -151 -147 -60 -59 -111 -108 -113 -108 -3 0 -8 93 -11 208 -5 197
-13 262 -48 387 -24 84 -112 340 -120 350 -5 5 -9 16 -9 25 0 8 -12 38 -26 65
-14 28 -44 86 -66 130 -78 155 -139 234 -305 396 -87 85 -181 172 -208 193
-28 22 -68 57 -90 77 -63 58 -366 244 -520 319 -170 82 -274 130 -284 130 -4
0 -29 11 -57 24 -74 35 -379 156 -463 182 -41 13 -88 24 -106 24 -36 0 -37 -3
-64 -150 -69 -380 -81 -504 -82 -826 0 -228 9 -346 36 -494 42 -232 146 -525
242 -683 82 -136 234 -322 326 -399 123 -102 376 -259 542 -336 88 -40 182
-85 209 -99 57 -29 105 -43 266 -78 63 -13 125 -27 138 -30 20 -5 13 -14 -69
-93 -50 -48 -103 -97 -118 -108 -116 -95 -206 -171 -363 -309 -231 -202 -435
-370 -481 -396 -14 -8 -26 -1 -63 38 -25 26 -75 91 -110 143 -36 52 -78 113
-95 135 -16 22 -42 58 -56 80 -15 22 -37 51 -49 65 -12 14 -56 84 -96 155 -41
72 -81 141 -90 155 -118 189 -344 719 -405 950 -62 235 -71 277 -109 500 -43
253 -54 401 -54 719 0 297 13 503 46 716 9 55 20 127 24 160 5 33 29 143 53
245 66 273 119 433 210 640 94 214 97 217 131 159z m4275 -1156 c47 -5 56 -10
70 -36 27 -51 58 -77 91 -77 16 0 30 -4 30 -10 0 -5 5 -10 10 -10 6 0 10 13
10 29 0 45 20 49 22 4 1 -42 -3 -209 -7 -233 -2 -19 -32 -26 -170 -39 -123
-12 -286 -14 -334 -5 l-31 7 0 182 c0 100 3 185 7 188 8 9 231 9 302 0z
m-3876 -137 c139 -47 409 -157 511 -208 173 -87 482 -308 658 -469 101 -93
269 -303 340 -426 58 -101 127 -300 169 -484 39 -177 47 -345 25 -524 -9 -72
-16 -150 -16 -174 0 -30 -7 -52 -26 -77 -33 -43 -41 -37 -79 53 -16 38 -46
106 -68 153 -21 47 -50 110 -64 140 -78 171 -118 250 -174 347 -70 123 -238
373 -301 450 -24 29 -90 110 -148 180 -175 214 -263 300 -533 518 -38 30 -74
55 -82 55 -21 0 -37 -28 -37 -66 0 -29 15 -58 69 -138 139 -203 274 -383 357
-476 47 -52 86 -98 86 -102 0 -5 -12 -8 -27 -8 -16 -1 -89 -5 -163 -10 -128
-8 -136 -10 -157 -35 -29 -33 -29 -53 0 -96 17 -25 37 -39 77 -52 72 -24 226
-47 320 -47 69 0 77 -2 106 -30 78 -72 191 -246 267 -410 22 -47 54 -116 72
-155 30 -63 75 -193 75 -216 0 -18 -47 -8 -105 21 -33 16 -66 30 -72 30 -7 0
-13 5 -13 11 0 5 -5 7 -10 4 -6 -4 -17 -1 -25 5 -8 7 -15 9 -15 6 0 -4 -6 -4
-12 0 -7 5 -26 8 -43 9 -16 1 -41 6 -55 12 -14 5 -32 13 -40 16 -12 4 -11 6 3
6 10 1 31 -6 47 -14 17 -9 31 -11 35 -6 7 13 -34 41 -60 41 -27 0 -52 20 -57
45 -2 11 -11 21 -21 23 -13 3 -17 -3 -17 -25 l0 -28 -27 30 c-23 24 -28 26
-31 12 -5 -23 -18 -22 -25 2 -3 14 -11 17 -31 14 -18 -4 -28 0 -32 11 -8 20
-24 21 -24 1 0 -8 5 -15 12 -15 6 0 9 -2 7 -5 -7 -6 -79 27 -79 37 0 4 -5 8
-10 8 -6 0 -16 5 -23 10 -7 6 -57 40 -112 76 -164 108 -329 284 -402 428 -58
115 -168 452 -199 606 -25 130 -39 502 -26 685 7 88 12 179 12 202 0 58 15 93
40 93 12 0 80 -20 153 -44z m7928 -66 c61 -349 55 -631 -21 -985 -33 -153
-108 -360 -173 -475 -127 -225 -276 -405 -409 -493 -73 -48 -269 -152 -326
-173 -26 -10 -51 -21 -57 -25 -5 -4 -41 -17 -80 -28 -38 -12 -79 -28 -90 -35
-53 -34 -225 -81 -225 -61 0 2 7 22 15 42 8 21 21 67 30 103 9 36 27 92 40
125 12 33 41 119 64 190 29 93 58 160 101 235 85 146 84 145 193 159 122 16
406 80 435 97 17 11 22 24 22 58 0 68 -20 80 -122 72 -243 -18 -278 -18 -278
-6 0 18 121 169 219 274 88 94 142 162 270 343 78 110 111 170 111 202 0 17
-5 19 -37 14 -89 -14 -193 -91 -387 -287 -218 -222 -467 -525 -579 -707 -80
-129 -211 -370 -256 -469 -48 -108 -108 -290 -131 -399 -23 -111 -34 -129 -61
-105 -48 43 -68 99 -79 215 -6 63 -15 143 -21 179 -18 108 -15 313 5 430 36
204 122 422 240 609 139 219 412 487 643 630 123 76 382 197 538 251 77 27
181 65 230 84 55 22 104 35 125 33 l35 -2 16 -95z m-3584 -436 c20 -27 26 -77
16 -135 l-8 -54 -255 -8 c-140 -5 -376 -9 -523 -10 -228 -2 -269 0 -278 13
-16 23 -3 169 17 191 21 23 105 26 629 23 354 -3 391 -5 402 -20z m892 -106
c-1 -7 -5 -24 -9 -38 -7 -23 -8 -23 -9 -3 -1 12 -6 25 -12 29 -8 4 -7 9 2 15
20 12 29 11 28 -3z m-83 -76 c-2 -1 -15 -5 -30 -8 -24 -4 -25 -3 -14 15 9 15
15 17 29 8 10 -6 17 -13 15 -15z m4 -124 c0 -6 -6 -5 -15 2 -8 7 -15 14 -15
16 0 2 7 1 15 -2 8 -4 15 -11 15 -16z m-20 -28 c0 -5 -4 -10 -10 -10 -5 0 -10
5 -10 10 0 6 5 10 10 10 6 0 10 -4 10 -10z m-1064 -150 c7 -26 23 -462 18
-469 -2 -2 -10 2 -18 8 -10 8 -20 9 -33 2 -10 -5 -26 -12 -35 -15 -24 -7 -23
-26 1 -26 20 0 35 -25 25 -41 -3 -5 -12 -9 -20 -9 -8 0 -14 -4 -14 -9 0 -17
31 -34 65 -35 25 -1 35 -6 35 -18 0 -15 -5 -15 -62 -2 -67 16 -89 8 -58 -19
17 -14 20 -14 20 -2 0 8 4 15 9 15 16 0 24 -21 13 -32 -6 -6 -8 -17 -5 -25 5
-13 3 -13 -16 -2 -11 8 -21 17 -21 21 0 12 -38 10 -45 -2 -3 -6 1 -13 9 -16
18 -7 22 -44 5 -44 -6 0 -9 -9 -6 -20 6 -22 -26 -60 -50 -60 -7 0 -13 -5 -13
-11 0 -7 9 -9 24 -5 20 5 23 3 19 -13 -4 -15 2 -21 27 -26 24 -5 29 -10 19
-16 -23 -14 -59 -11 -59 6 0 8 -4 15 -10 15 -12 0 -13 -30 -1 -48 11 -19 15
-19 34 -4 10 8 17 9 21 3 4 -6 14 -8 24 -5 14 5 15 4 2 -5 -12 -9 -13 -14 -2
-31 14 -23 1 -27 -18 -5 -7 8 -16 12 -21 9 -15 -9 -10 -24 7 -24 8 0 12 -4 9
-10 -3 -5 -15 -10 -25 -10 -22 0 -32 -13 -25 -33 8 -19 85 0 85 22 0 11 3 12
11 4 13 -13 4 -33 -16 -33 -7 0 -16 -12 -19 -26 -5 -17 -19 -30 -42 -40 -38
-16 -39 -26 -1 -29 12 -1 28 6 34 16 11 14 17 15 38 6 32 -15 32 -37 0 -37
-14 0 -25 -4 -25 -10 0 -13 36 -31 45 -22 5 4 5 -1 2 -10 -6 -16 3 -23 26 -19
4 0 7 -4 7 -9 0 -18 -31 -10 -66 16 -19 15 -37 24 -41 21 -10 -11 7 -39 27
-44 19 -5 18 -8 -15 -49 l-36 -44 21 -30 c18 -25 19 -30 5 -30 -8 0 -21 -12
-27 -26 -10 -21 -9 -27 3 -34 10 -7 15 -4 17 11 4 24 26 20 31 -7 2 -10 12
-25 22 -32 22 -15 16 -32 -10 -32 -10 0 -22 10 -26 23 -8 22 -8 22 -12 -3 -3
-14 -16 -37 -30 -52 -25 -26 -25 -28 -9 -52 9 -14 16 -34 16 -46 0 -14 7 -20
23 -20 18 0 19 -2 7 -10 -24 -15 -40 -12 -40 9 0 10 -7 22 -16 25 -23 9 -29 0
-14 -19 7 -9 10 -18 7 -22 -4 -3 -2 -14 4 -25 9 -16 6 -25 -15 -47 -30 -31
-32 -41 -11 -41 9 0 12 6 9 15 -4 10 0 15 11 15 24 0 12 -48 -18 -73 -12 -10
-16 -16 -9 -12 10 5 13 1 11 -16 -1 -13 3 -35 8 -49 14 -32 8 -42 -23 -34 -18
5 -24 2 -24 -10 0 -9 5 -16 11 -16 6 0 9 -9 6 -19 -3 -12 1 -22 9 -25 8 -3 14
-10 14 -16 0 -7 -6 -8 -16 -2 -22 12 -84 -7 -84 -26 0 -10 8 -13 24 -10 19 4
23 1 22 -17 -1 -16 -6 -21 -19 -17 -9 2 -20 8 -23 13 -3 5 -12 3 -20 -5 -20
-20 -18 -24 11 -18 15 2 25 0 25 -7 0 -6 -7 -11 -15 -11 -7 0 -18 -8 -24 -17
-5 -10 -21 -18 -37 -18 -15 0 -29 -5 -31 -11 -2 -7 6 -10 23 -6 22 4 26 2 21
-11 -3 -9 -1 -17 6 -20 8 -2 7 -12 -2 -35 -7 -17 -11 -38 -7 -47 4 -10 -1 -15
-14 -15 -29 0 -21 -39 13 -71 l28 -26 -31 -32 c-36 -40 -37 -42 -7 -38 12 2
16 2 10 0 -7 -3 -13 -8 -13 -13 0 -5 6 -10 13 -13 11 -4 0 -11 -40 -23 -7 -2
-13 -9 -13 -15 0 -8 4 -9 13 0 17 14 27 4 27 -25 0 -15 -7 -24 -21 -26 -18 -3
-19 -5 -5 -23 12 -16 17 -18 27 -7 7 6 17 12 21 12 15 0 8 -29 -9 -38 -11 -7
-14 -15 -8 -28 5 -11 8 -22 7 -26 -1 -4 5 -23 13 -42 14 -32 14 -36 -1 -36 -9
0 -14 -7 -12 -18 4 -21 58 -26 58 -6 0 8 9 14 20 14 28 0 25 -15 -7 -38 -31
-22 -26 -58 7 -49 24 6 55 -26 46 -49 -10 -25 31 -68 72 -77 71 -14 83 -14 90
-1 10 17 58 28 66 15 5 -7 -2 -11 -17 -11 -28 0 -43 -26 -26 -46 9 -11 -19
-14 -158 -17 -92 -3 -177 -7 -188 -9 -75 -18 -72 -15 -84 -88 -25 -156 -3
-241 83 -317 80 -71 176 -88 302 -57 36 9 67 15 69 12 12 -11 -19 -69 -48 -90
-67 -50 -130 -69 -224 -69 -57 0 -73 -3 -73 -14 0 -17 30 -34 65 -37 15 -2 41
-16 58 -33 18 -17 47 -41 65 -53 51 -37 43 -52 -30 -52 -70 0 -171 28 -233 65
-53 31 -178 163 -206 216 -55 108 -51 -19 -53 1847 -2 1548 0 1724 13 1733 10
5 151 8 348 7 l332 -3 7 -25z m601 -398 c36 -40 95 -92 132 -116 36 -25 102
-77 146 -116 44 -40 99 -86 123 -103 23 -17 42 -35 42 -41 0 -12 -167 -161
-212 -190 -16 -10 -28 -24 -28 -31 0 -7 -28 -39 -62 -72 -35 -33 -84 -86 -110
-119 -50 -65 -104 -101 -133 -90 -16 6 -17 20 -11 184 9 278 9 386 -3 542 -6
80 -11 171 -11 203 l0 58 31 -18 c17 -10 61 -51 96 -91z m-1534 -32 c-1 -14
-7 -88 -13 -165 -12 -157 -21 -191 -55 -199 -13 -3 -51 -33 -85 -67 -48 -48
-59 -63 -50 -74 16 -20 2 -205 -17 -227 -8 -9 -14 -29 -13 -45 4 -54 0 -73
-15 -73 -8 0 -15 5 -15 11 0 5 -4 7 -10 4 -15 -9 -12 -25 5 -25 24 0 18 -10
-37 -61 -35 -32 -59 -46 -70 -43 -10 3 -18 0 -18 -6 0 -6 -8 -10 -17 -8 -11 2
-18 -3 -18 -12 0 -8 5 -14 12 -13 7 2 10 -3 7 -11 -3 -8 -15 -11 -31 -8 -21 4
-25 2 -20 -12 7 -19 -1 -46 -14 -46 -5 0 -9 7 -9 16 0 12 -5 10 -19 -7 -13
-17 -16 -26 -8 -31 8 -5 6 -9 -6 -14 -9 -3 -17 -13 -17 -21 0 -8 -5 -11 -11
-8 -12 8 -49 -23 -49 -41 0 -15 -45 -66 -180 -201 -117 -117 -132 -128 -159
-114 -26 15 -28 14 -34 -9 -6 -25 9 -36 29 -19 12 10 13 9 8 -6 -6 -15 -15
-16 -63 -11 -35 4 -51 3 -42 -3 9 -6 11 -15 6 -27 -5 -11 -7 -24 -7 -29 3 -16
-57 -12 -67 4 -6 9 -9 0 -8 -27 2 -40 3 -40 24 -26 20 13 22 12 16 -3 -10 -26
-25 -34 -55 -27 -17 3 -28 1 -28 -5 0 -6 7 -11 16 -11 11 0 14 -5 10 -16 -3
-9 -6 -19 -6 -24 0 -14 -32 -21 -45 -10 -9 8 -15 8 -20 0 -9 -15 -25 -2 -18
15 3 10 -2 15 -16 15 -22 0 -28 -14 -11 -25 17 -10 11 -37 -9 -42 -21 -5 -48
-49 -38 -60 4 -3 22 10 40 30 32 36 47 45 47 29 0 -5 -29 -39 -65 -77 -36 -38
-65 -72 -65 -76 0 -4 -17 -10 -37 -14 -32 -6 -35 -9 -18 -15 18 -7 19 -8 3
-15 -10 -4 -18 -11 -18 -16 0 -17 -103 -110 -116 -105 -8 3 -11 0 -8 -9 6 -14
-51 -75 -68 -75 -5 0 -8 -6 -8 -14 0 -18 -42 -29 -52 -13 -7 12 -14 1 -20 -37
-2 -10 -13 -25 -25 -33 -20 -13 -21 -13 -16 5 6 25 -23 37 -43 17 -9 -8 -19
-15 -23 -15 -4 0 -7 -9 -7 -20 0 -22 25 -27 44 -8 9 9 12 9 12 0 0 -18 -39
-54 -51 -47 -5 4 -7 10 -4 15 3 4 -4 10 -15 13 -12 3 -20 14 -20 26 0 26 -17
28 -25 2 -3 -10 -17 -22 -30 -25 -26 -7 -32 -20 -14 -32 6 -3 15 0 20 7 13 22
23 1 11 -25 -7 -16 -21 -26 -39 -28 -17 -2 -27 -8 -25 -16 1 -7 -5 -21 -15
-30 -16 -16 -16 -16 -10 0 11 29 -13 31 -39 3 -27 -29 -31 -45 -10 -45 17 0
29 -27 15 -36 -15 -9 -39 3 -39 21 0 17 -16 20 -26 4 -3 -6 -2 -14 4 -18 18
-11 -4 -79 -25 -77 -11 0 -25 -15 -38 -39 -19 -37 -25 -41 -71 -46 -44 -5 -45
-14 -1 -10 9 1 17 -3 17 -8 0 -16 -66 -13 -79 3 -9 10 -8 16 4 26 23 19 18 39
-11 46 -43 11 -48 -9 -14 -60 26 -38 37 -46 63 -47 24 -1 26 -3 10 -6 -13 -2
-23 -8 -23 -12 0 -11 -32 -7 -60 9 -14 8 -31 13 -39 11 -11 -2 -12 7 -6 44 4
33 3 45 -4 40 -6 -3 -11 -14 -11 -24 0 -10 -7 -24 -16 -31 -30 -26 -37 -51
-17 -66 17 -12 16 -13 -9 -14 -15 0 -30 5 -33 10 -12 20 -35 10 -35 -15 0 -25
-10 -32 -24 -18 -4 5 -20 9 -34 10 -15 1 -38 3 -52 5 -19 2 -26 -2 -28 -19 -2
-13 -7 -23 -12 -23 -8 0 -23 -34 -25 -55 0 -5 -20 -10 -45 -10 -49 0 -86 -20
-104 -56 -19 -38 -30 -31 -63 41 -27 57 -33 82 -33 137 0 143 48 279 135 386
24 29 99 100 167 158 67 57 166 145 218 194 52 50 214 194 359 320 503 439
764 670 920 813 20 18 113 94 206 169 97 78 243 210 340 308 237 237 401 395
444 427 45 34 77 33 74 -2z m948 -60 c5 0 9 -19 9 -43 0 -40 -2 -43 -30 -45
-37 -3 -41 23 -5 32 26 7 35 26 13 26 -22 0 -41 17 -33 30 4 6 14 9 22 6 8 -3
19 -6 24 -6z m7 -190 c-2 -6 -8 -6 -18 0 -13 9 -13 11 0 20 15 10 25 0 18 -20z
m-1 -52 c-3 -7 -5 -2 -5 12 0 14 2 19 5 13 2 -7 2 -19 0 -25z m-113 -24 c20
-8 21 -34 2 -34 -7 0 -16 9 -19 20 -6 22 -5 23 17 14z m113 -76 c-3 -7 -5 -2
-5 12 0 14 2 19 5 13 2 -7 2 -19 0 -25z m-100 -4 c12 -11 13 -18 4 -27 -8 -8
-11 -7 -11 6 0 9 -4 17 -10 17 -5 0 -10 5 -10 10 0 14 9 12 27 -6z m1300 -91
c11 -10 42 -45 69 -77 68 -82 246 -240 725 -646 68 -58 184 -161 259 -230 74
-69 158 -145 185 -169 28 -24 75 -67 105 -95 30 -29 93 -85 140 -126 209 -182
452 -402 530 -480 63 -63 96 -107 126 -165 52 -101 67 -164 68 -288 1 -115 -7
-127 -86 -127 -56 0 -93 27 -103 77 -10 42 -46 156 -55 172 -6 11 -9 9 -14 -7
-7 -22 -36 -31 -36 -12 0 6 -7 10 -15 10 -8 0 -15 -4 -15 -10 0 -16 -20 -12
-51 11 -28 20 -29 22 -12 35 10 7 27 14 38 14 18 1 19 1 2 11 -9 5 -55 10
-101 10 -69 0 -88 3 -107 20 -24 21 -19 40 5 20 8 -7 20 -10 25 -7 5 4 12 2
16 -4 6 -10 60 -8 71 3 4 3 4 14 0 23 -5 13 -9 15 -18 6 -15 -15 -55 -16 -64
-1 -4 6 -20 8 -39 5 -21 -4 -35 -2 -37 5 -3 9 -9 9 -25 0 -32 -16 -43 -14 -43
10 0 17 4 20 22 16 12 -4 33 -4 46 0 37 9 6 22 -42 18 -48 -5 -59 1 -47 23 6
11 5 23 -4 35 -17 23 -29 22 -48 -5 -15 -23 -15 -23 -31 -3 -13 17 -17 18 -26
5 -5 -8 -10 -12 -10 -8 0 3 -3 13 -6 22 -4 11 -1 16 10 16 9 0 16 7 16 15 0 9
-9 15 -24 15 -14 0 -32 10 -40 22 -11 15 -16 18 -16 8 -1 -11 -3 -11 -11 3 -5
9 -7 22 -3 28 4 6 -9 26 -28 43 -33 30 -36 31 -47 14 -14 -22 -41 -24 -41 -3
0 9 -9 15 -25 15 -29 0 -33 -15 -7 -25 15 -6 15 -7 1 -15 -18 -10 -59 -2 -59
11 0 5 5 9 11 9 24 0 -5 20 -38 26 -32 6 -34 8 -16 15 29 11 36 47 12 62 -11
7 -19 23 -19 39 0 16 -4 28 -10 28 -5 0 -10 9 -10 20 0 15 -7 20 -29 20 -16 0
-34 7 -41 15 -7 8 -19 15 -26 15 -8 0 -20 11 -26 25 -10 21 -13 23 -22 9 -10
-13 -14 -13 -35 5 -13 12 -32 21 -41 21 -9 0 -27 9 -39 19 l-22 19 40 -5 c27
-4 41 -2 41 6 0 6 -11 11 -25 11 -41 0 -75 28 -76 64 -2 27 -2 28 -6 6 -7 -37
-23 -49 -23 -17 0 20 -5 27 -19 27 -31 0 -42 22 -26 53 12 24 12 27 -6 32 -10
4 -19 14 -19 23 0 15 -2 15 -10 2 -9 -13 -11 -13 -20 0 -8 13 -11 13 -19 1
-12 -18 -33 -4 -26 18 5 15 -2 17 -49 16 -48 -2 -53 0 -49 16 5 16 1 18 -24
13 -25 -5 -31 -2 -35 14 -8 30 16 35 57 11 19 -11 42 -19 50 -17 14 3 14 6 -4
23 -11 11 -35 31 -55 45 -25 18 -37 35 -41 62 l-6 36 -55 0 c-37 0 -51 -4 -47
-12 4 -6 6 -19 5 -28 -2 -11 3 -18 12 -18 9 0 16 -4 16 -9 0 -6 -9 -9 -20 -8
-11 1 -20 6 -20 13 0 19 -41 49 -69 49 -17 0 -29 7 -36 23 -5 12 -13 22 -18
22 -8 0 -71 58 -171 156 -28 28 -59 54 -68 57 -10 4 -18 16 -18 27 0 11 -9 24
-19 28 -28 10 -131 109 -131 125 0 8 -11 19 -24 27 -14 7 -22 18 -19 26 3 8
-1 14 -8 14 -11 0 -11 2 1 10 9 6 14 21 12 40 -3 24 1 32 22 40 43 16 33 44
-26 74 -21 11 -38 26 -38 34 0 11 3 12 14 3 11 -9 20 -5 45 20 17 17 29 35 26
39 -8 13 169 240 186 240 4 0 16 -8 26 -17z m-1197 -8 c0 -9 -6 -12 -16 -8
-13 5 -13 7 -2 14 17 11 18 11 18 -6z m0 -137 c-1 -84 -2 -91 -15 -74 -10 13
-12 23 -5 30 18 18 11 46 -10 46 -27 0 -26 26 1 33 17 5 20 11 15 31 -4 15 -2
26 4 26 6 0 10 -36 10 -92z m-3396 -64 c5 -12 2 -15 -10 -10 -8 3 -20 6 -25 6
-5 0 -9 5 -9 10 0 16 37 11 44 -6z m3396 -75 c0 -18 -2 -19 -15 -9 -15 12 -12
30 6 30 5 0 9 -10 9 -21z m-2 -70 c-1 -16 -4 -26 -7 -21 -3 5 -16 12 -28 16
-23 7 -32 26 -13 26 6 0 10 -4 10 -10 0 -5 7 -10 15 -10 8 0 15 7 15 15 0 8 2
15 4 15 3 0 4 -14 4 -31z m930 -43 c2 -28 0 -37 -10 -34 -7 3 -14 22 -16 42
-2 28 0 37 10 34 7 -3 14 -22 16 -42z m-931 -48 c-3 -7 -5 -2 -5 12 0 14 2 19
5 13 2 -7 2 -19 0 -25z m-72 2 c-3 -5 -10 -10 -16 -10 -5 0 -9 5 -9 10 0 6 7
10 16 10 8 0 12 -4 9 -10z m50 -20 c3 -5 1 -10 -4 -10 -6 0 -11 5 -11 10 0 6
2 10 4 10 3 0 8 -4 11 -10z m-115 -139 c0 -10 -30 -24 -37 -17 -3 3 -2 9 2 15
8 13 35 15 35 2z m70 -1 c0 -5 -4 -10 -10 -10 -5 0 -10 5 -10 10 0 6 5 10 10
10 6 0 10 -4 10 -10z m61 -27 c-12 -20 -14 -14 -5 12 4 9 9 14 11 11 3 -2 0
-13 -6 -23z m1569 -383 c0 -5 -4 -10 -10 -10 -5 0 -10 5 -10 10 0 6 5 10 10
10 6 0 10 -4 10 -10z m-870 -135 c0 -28 -24 -65 -42 -65 -26 0 -23 -8 28 -70
24 -30 62 -77 83 -105 41 -52 46 -58 226 -252 130 -140 335 -343 347 -343 18
0 212 -166 254 -218 26 -31 67 -80 93 -108 25 -28 71 -79 101 -114 30 -36 73
-80 94 -100 66 -58 86 -82 86 -102 0 -10 12 -30 26 -43 23 -21 24 -26 10 -31
-22 -8 -11 -23 13 -17 13 3 23 -2 31 -17 10 -18 8 -24 -7 -36 -30 -23 -82 -44
-98 -38 -10 4 -15 0 -15 -10 0 -21 -40 -37 -58 -23 -7 5 -16 7 -19 3 -4 -4 -1
-11 7 -16 10 -6 0 -15 -37 -33 -49 -23 -52 -24 -56 -6 -3 12 5 30 23 47 47 48
22 62 -82 46 -56 -8 -65 -31 -15 -36 32 -3 32 -3 9 -16 -20 -12 -26 -11 -42 3
-15 14 -17 21 -8 41 6 13 20 24 30 24 11 0 26 7 34 15 18 18 14 19 -23 4 -57
-23 -72 -32 -67 -40 3 -5 -1 -18 -9 -29 -13 -18 -15 -19 -21 -5 -3 9 -11 13
-16 10 -8 -5 -7 -11 1 -21 9 -11 6 -18 -12 -34 -13 -10 -27 -19 -31 -20 -3 0
-20 -13 -36 -29 -40 -41 -34 -81 12 -82 37 0 26 -6 -69 -35 -33 -9 -65 -21
-70 -25 -13 -9 -96 -39 -110 -39 -6 0 -12 11 -13 25 -2 22 2 25 31 25 18 0 38
-5 45 -12 9 -9 12 -9 12 0 0 7 8 12 18 13 15 0 15 1 -2 8 -28 11 -2 25 30 17
41 -11 18 13 -34 35 -56 24 -70 20 -64 -20 4 -31 4 -31 -41 -31 -25 0 -49 -4
-52 -10 -3 -5 -30 -10 -58 -11 l-52 -1 63 -20 c34 -11 62 -24 62 -29 0 -5 -4
-9 -10 -9 -5 0 -10 5 -10 10 0 6 -16 10 -35 8 -28 -2 -35 -6 -36 -23 0 -11 -3
-14 -6 -7 -2 6 -15 12 -28 12 -12 0 -25 6 -28 13 -2 7 -17 13 -33 15 -24 2
-26 0 -12 -10 23 -19 30 -48 13 -54 -8 -4 -13 -10 -10 -14 7 -12 -3 -17 -52
-25 -37 -6 -43 -4 -44 12 0 14 -2 14 -6 3 -13 -32 -34 -42 -78 -38 -25 2 -46
1 -48 -2 -5 -7 1 16 10 38 5 12 -3 9 -26 -10 -18 -16 -43 -28 -57 -28 -30 0
-32 -17 -1 -23 13 -3 8 -5 -15 -6 -28 -1 -38 3 -38 14 0 23 4 30 14 27 6 -2
20 -1 33 3 30 7 20 25 -13 25 -18 0 -24 5 -24 21 0 15 -5 19 -15 15 -8 -3 -15
-1 -15 4 0 6 -4 10 -10 10 -5 0 -10 -7 -10 -15 0 -8 5 -15 10 -15 6 0 10 -5
10 -10 0 -15 -43 -29 -56 -19 -14 12 -54 -1 -54 -17 0 -8 -3 -14 -6 -14 -8 0
-54 43 -54 51 0 13 49 19 74 9 20 -7 24 -6 19 5 -3 8 -16 16 -29 16 -13 1 -28
2 -34 3 -21 2 -48 -27 -40 -43 5 -9 11 -23 14 -31 3 -8 10 -22 14 -30 32 -55
32 -58 6 -64 -31 -8 -50 2 -35 17 6 6 11 18 11 27 0 12 -13 15 -65 16 -36 0
-65 -2 -65 -4 0 -1 7 -16 15 -32 10 -18 21 -27 29 -24 8 3 23 1 33 -5 14 -8 6
-10 -37 -11 -31 0 -60 -4 -65 -9 -17 -16 -215 -34 -304 -28 -84 6 -121 22
-121 54 0 7 -4 13 -9 13 -14 0 -21 42 -10 62 5 10 15 18 22 18 12 0 118 49
225 103 50 26 143 105 204 174 40 46 121 194 147 273 19 53 30 355 33 860 3
567 7 664 29 668 9 2 29 -8 44 -22 29 -27 55 -34 55 -16 0 6 11 15 25 20 14 5
25 14 25 20 0 5 5 10 10 10 6 0 10 -7 10 -15z m-1854 -34 c-9 -10 -13 -21 -9
-25 4 -4 1 -11 -7 -17 -13 -8 -12 -11 4 -24 25 -19 14 -31 -35 -38 -22 -3 -42
-7 -45 -9 -2 -3 5 -22 16 -43 11 -22 20 -35 20 -30 0 12 20 -16 20 -28 0 -5
-7 -1 -16 7 -8 9 -24 16 -34 16 -10 0 -22 5 -25 10 -13 21 -23 9 -12 -15 7
-13 24 -29 40 -34 15 -6 27 -15 27 -20 0 -23 28 -9 59 29 17 22 37 40 44 40 7
0 27 16 44 35 18 20 45 40 59 45 l27 11 -6 -51 c-4 -29 -2 -50 4 -50 6 0 7
-208 3 -575 -6 -591 -5 -617 33 -720 52 -140 106 -229 196 -322 62 -65 67 -79
16 -42 -28 19 -31 20 -48 5 -19 -17 -71 -22 -71 -7 0 5 -11 11 -25 13 -16 4
-25 1 -25 -8 0 -16 44 -64 59 -64 6 0 11 -3 11 -7 0 -8 -8 -10 -107 -19 -35
-3 -63 -8 -63 -12 0 -3 10 -16 21 -28 l22 -23 -42 2 c-25 1 -41 6 -41 14 0 19
-19 26 -35 13 -8 -7 -21 -10 -30 -7 -21 8 -29 -11 -13 -30 12 -15 8 -16 -39
-9 -53 7 -53 7 -54 -21 -2 -24 -2 -25 -6 -5 -5 25 -21 29 -29 7 -4 -8 -10 -15
-15 -15 -4 0 -6 7 -3 15 4 8 2 15 -4 15 -6 0 -17 3 -26 6 -12 4 -16 0 -16 -16
0 -17 -3 -20 -12 -12 -7 6 -16 10 -21 10 -39 -1 -267 69 -267 83 0 4 -9 5 -20
2 -19 -5 -48 3 -117 33 -17 8 -39 14 -50 14 -24 1 -53 23 -53 42 0 20 -27 42
-53 43 -12 1 -39 2 -60 3 -34 2 -37 4 -27 22 10 18 9 19 -17 9 -22 -8 -30 -7
-39 5 -6 9 -16 16 -22 16 -6 0 -12 3 -15 8 -2 4 -2 1 -1 -5 2 -7 -1 -13 -6
-13 -15 0 -123 42 -134 52 -6 5 -35 23 -63 39 -29 16 -53 36 -53 44 0 8 -9 15
-19 15 -19 0 -111 36 -111 43 0 2 31 26 70 53 38 27 75 60 82 74 16 31 95 138
122 165 44 43 121 138 128 156 4 10 12 19 18 19 6 0 9 4 5 9 -3 5 6 18 20 29
14 11 25 25 25 30 0 13 64 82 76 82 5 0 24 14 42 30 18 17 40 30 48 30 8 0 14
4 14 10 0 5 3 9 8 8 13 -5 96 58 164 125 50 48 66 71 61 83 -4 12 -3 15 5 10
8 -4 30 11 57 38 41 41 44 47 33 66 -14 22 -33 28 -25 7 4 -10 -2 -13 -19 -9
-29 5 -32 -6 -4 -16 19 -7 18 -8 -6 -40 -16 -20 -34 -32 -49 -32 -13 0 -27 -5
-31 -11 -7 -12 -51 -4 -72 13 -17 15 2 28 40 28 15 0 30 5 33 10 3 6 -3 10
-14 10 -12 0 -21 6 -21 14 0 7 -6 19 -14 25 -10 9 -16 7 -27 -5 -10 -13 -10
-17 1 -24 18 -11 12 -17 -25 -22 -16 -3 -24 -3 -17 -1 15 5 16 20 1 29 -6 3
-15 0 -20 -7 -4 -7 -12 -10 -16 -5 -4 4 11 25 35 47 23 22 42 43 42 46 0 4 20
25 43 48 45 41 91 55 101 29 3 -8 1 -14 -4 -14 -6 0 -10 -4 -10 -10 0 -5 12
-10 26 -10 22 0 25 -2 14 -15 -10 -12 -9 -15 8 -15 25 0 43 22 33 38 -12 21
-1 61 15 55 8 -3 14 -12 14 -21 0 -14 2 -14 14 -2 23 24 22 76 -1 155 -5 17
-4 18 10 7 9 -8 17 -26 19 -40 2 -21 8 -27 28 -27 19 0 26 6 28 25 5 41 12 56
20 43 9 -15 49 -6 56 12 3 9 0 12 -10 8 -7 -3 -14 0 -14 7 0 8 -11 11 -30 8
-16 -2 -31 0 -33 6 -3 7 -12 4 -24 -6 -11 -10 -25 -18 -32 -18 -13 0 163 176
241 241 42 36 66 36 34 0z m2811 -13 c-3 -8 -6 -5 -6 6 -1 11 2 17 5 13 3 -3
4 -12 1 -19z m-1965 -40 c-6 -6 -15 -7 -22 -3 -8 5 -6 13 7 27 16 18 18 19 21
3 2 -9 -1 -22 -6 -27z m55 6 c-3 -3 -12 -4 -19 -1 -8 3 -5 6 6 6 11 1 17 -2
13 -5z m1988 -4 c-3 -5 -10 -10 -16 -10 -5 0 -9 5 -9 10 0 6 7 10 16 10 8 0
12 -4 9 -10z m-907 -23 c23 -28 -23 -102 -55 -90 -18 7 -16 20 7 43 11 11 20
29 20 40 0 23 13 26 28 7z m1015 -13 c8 -8 -3 -34 -14 -34 -5 0 -9 9 -9 20 0
19 11 26 23 14z m-3009 -48 c14 5 17 3 14 -12 -4 -23 -38 -32 -38 -10 0 9 -5
16 -11 16 -5 0 -7 5 -3 11 5 8 8 8 14 0 3 -7 15 -9 24 -5z m869 0 c4 -10 1
-13 -9 -9 -15 6 -19 23 -5 23 5 0 11 -7 14 -14z m1217 -32 c0 -2 -7 -4 -15 -4
-8 0 -15 4 -15 10 0 5 7 7 15 4 8 -4 15 -8 15 -10z m-1270 -36 c0 -16 -3 -19
-11 -11 -6 6 -8 16 -5 22 11 17 16 13 16 -11z m1320 -34 c0 -19 -50 -66 -64
-61 -6 2 -12 13 -14 24 -3 17 4 22 35 28 34 6 36 8 20 20 -23 17 -22 28 3 15
11 -6 20 -18 20 -26z m-2440 -59 c0 -8 -10 -20 -22 -26 -14 -8 -18 -14 -10
-17 14 -4 16 -32 2 -32 -5 0 -10 6 -10 14 0 8 -5 16 -11 18 -6 2 0 15 13 30
26 30 38 35 38 13z m1170 5 c0 -5 -7 -10 -16 -10 -8 0 -12 5 -9 10 3 6 10 10
16 10 5 0 9 -4 9 -10z m-1245 -70 c-3 -5 -11 -10 -16 -10 -6 0 -7 5 -4 10 3 6
11 10 16 10 6 0 7 -4 4 -10z m3662 -17 c-9 -9 -19 -14 -23 -11 -10 10 6 28 24
28 15 0 15 -1 -1 -17z m-2397 -213 c0 -5 -4 -10 -10 -10 -5 0 -10 5 -10 10 0
6 5 10 10 10 6 0 10 -4 10 -10z m-1523 -37 c-9 -9 -20 -13 -24 -9 -4 4 1 14
11 22 25 18 35 8 13 -13z m4083 17 c0 -5 -2 -10 -4 -10 -3 0 -8 5 -11 10 -3 6
-1 10 4 10 6 0 11 -4 11 -10z m110 -24 c0 -11 -19 -15 -25 -6 -3 5 1 10 9 10
9 0 16 -2 16 -4z m-4060 -52 c0 -2 -9 -4 -21 -4 -11 0 -18 4 -14 10 5 8 35 3
35 -6z m-60 -14 c0 -5 -9 -10 -21 -10 -11 0 -17 5 -14 10 3 6 13 10 21 10 8 0
14 -4 14 -10z m4450 -64 c0 -7 -11 -16 -25 -18 -21 -4 -23 -3 -14 13 11 22 39
25 39 5z m-115 -15 c3 -5 1 -12 -5 -16 -5 -3 -10 1 -10 9 0 18 6 21 15 7z
m-4661 -111 c-9 -16 -19 -30 -24 -30 -4 0 -10 -9 -13 -20 -3 -11 -12 -20 -21
-20 -19 0 -22 -36 -4 -42 16 -6 -30 -32 -57 -32 -14 -1 -23 -12 -31 -36 -12
-37 -32 -50 -44 -30 -6 9 -10 7 -15 -9 -6 -19 -17 -25 -37 -22 -5 0 -8 -4 -8
-9 0 -5 -5 -10 -11 -10 -14 0 52 78 136 160 36 36 80 80 97 98 39 40 51 41 32
2z m4876 9 c0 -5 -7 -9 -15 -9 -8 0 -15 7 -15 15 0 9 6 12 15 9 8 -4 15 -10
15 -15z m178 -61 c-7 -20 -58 -23 -58 -4 0 11 10 16 31 16 20 0 29 -4 27 -12z
m-8 -68 c0 -5 -4 -10 -10 -10 -5 0 -10 5 -10 10 0 6 5 10 10 10 6 0 10 -4 10
-10z m80 -10 c0 -5 -10 -10 -22 -10 -19 0 -20 2 -8 10 19 13 30 13 30 0z m100
-30 c0 -29 -4 -40 -15 -40 -17 0 -20 26 -5 35 6 4 8 15 5 26 -4 11 -2 19 4 19
6 0 11 -18 11 -40z m-6403 -47 c-11 -10 -26 8 -20 23 5 15 7 14 15 -1 6 -9 7
-19 5 -22z m1083 -18 c0 -8 -7 -15 -15 -15 -26 0 -18 20 13 29 1 1 2 -6 2 -14z
m-95 -45 c-3 -5 -13 -10 -21 -10 -8 0 -14 5 -14 10 0 6 9 10 21 10 11 0 17 -4
14 -10z m5275 -24 c6 -8 24 -17 38 -19 15 -3 5 -4 -23 -4 -57 1 -111 22 -78
30 34 9 51 7 63 -7z m-5390 -15 c0 -12 -20 -25 -27 -18 -7 7 6 27 18 27 5 0 9
-4 9 -9z m4230 -5 c0 -3 -4 -8 -10 -11 -5 -3 -10 -1 -10 4 0 6 5 11 10 11 6 0
10 -2 10 -4z m371 -237 c8 -16 6 -19 -11 -19 -12 0 -28 -7 -36 -15 -9 -8 -20
-15 -25 -15 -16 0 -10 19 11 30 11 6 20 19 20 30 0 24 26 17 41 -11z m-491
-293 c0 -3 -4 -8 -10 -11 -5 -3 -10 -1 -10 4 0 6 5 11 10 11 6 0 10 -2 10 -4z
m-45 -12 c13 -5 14 -8 3 -15 -19 -13 -28 -11 -28 6 0 17 2 18 25 9z m-75 -24
c0 -5 -4 -10 -10 -10 -5 0 -10 5 -10 10 0 6 5 10 10 10 6 0 10 -4 10 -10z m35
0 c3 -5 1 -10 -4 -10 -6 0 -11 5 -11 10 0 6 2 10 4 10 3 0 8 -4 11 -10z m-135
-40 c0 -5 -4 -10 -10 -10 -5 0 -10 5 -10 10 0 6 5 10 10 10 6 0 10 -4 10 -10z
m-360 -144 c0 -3 -4 -8 -10 -11 -5 -3 -10 -1 -10 4 0 6 5 11 10 11 6 0 10 -2
10 -4z m-2070 -20 c0 -11 -19 -15 -25 -6 -3 5 1 10 9 10 9 0 16 -2 16 -4z
m1978 -8 c-3 -7 -12 -14 -21 -16 -12 -2 -15 1 -11 12 7 19 38 22 32 4z m-2130
-37 c3 -8 -1 -12 -9 -9 -7 2 -15 10 -17 17 -3 8 1 12 9 9 7 -2 15 -10 17 -17z
m1690 -42 c1 -8 -3 -22 -10 -32 -16 -20 -78 -35 -78 -18 0 6 12 11 26 11 14 0
23 4 19 10 -8 12 17 51 30 47 5 -2 11 -10 13 -18z m-87 -24 c-1 -15 -24 -12
-29 3 -3 9 2 13 12 10 10 -1 17 -7 17 -13z m-107 -19 c-7 -17 -34 -22 -34 -6
0 6 7 10 15 10 8 0 15 5 15 12 0 6 2 9 5 6 3 -3 3 -13 -1 -22z"/>
<path d="M4875 9561 c-202 -33 -294 -63 -497 -162 -165 -82 -263 -152 -390
-281 -145 -147 -211 -234 -277 -364 -54 -109 -132 -326 -156 -439 -23 -108
-38 -309 -31 -419 8 -107 46 -304 78 -401 28 -85 104 -238 157 -315 118 -174
224 -286 370 -393 210 -153 267 -184 444 -246 217 -75 277 -86 492 -85 187 0
192 0 340 38 245 62 406 137 580 269 245 187 406 401 520 691 80 205 105 339
105 566 0 433 -150 790 -465 1106 -74 74 -160 150 -200 176 -95 61 -294 172
-336 187 -211 76 -521 107 -734 72z m358 -242 c155 -23 363 -97 521 -185 61
-35 221 -171 285 -243 129 -146 237 -356 261 -508 13 -82 21 -155 14 -130 -7
23 -21 22 -29 -2 -3 -11 -12 -22 -20 -25 -10 -3 -15 -19 -15 -45 0 -22 -5 -41
-11 -43 -7 -2 -12 -76 -13 -223 -3 -200 -2 -215 10 -160 7 33 13 79 13 102 1
23 6 45 11 48 6 3 10 16 10 28 0 38 15 51 34 31 14 -13 20 -14 26 -5 32 52 19
-169 -17 -279 -13 -41 -36 -100 -50 -130 -28 -57 -30 -63 -59 -145 -47 -130
-173 -307 -290 -406 -147 -124 -344 -225 -554 -284 -99 -27 -450 -24 -576 6
-144 34 -349 127 -463 212 -116 85 -327 320 -393 434 -46 83 -95 191 -112 248
-9 33 -21 74 -26 90 -19 65 -33 249 -27 353 12 205 45 345 126 533 71 165 201
328 368 462 148 119 399 227 618 266 72 13 274 13 358 0z"/>
<path d="M5982 8027 c-12 -13 -22 -27 -22 -31 0 -23 -163 -227 -257 -321 -68
-68 -85 -83 -203 -176 -189 -151 -323 -222 -560 -300 -30 -10 -45 -18 -32 -18
36 -1 25 -18 -20 -33 -30 -9 -43 -19 -42 -30 1 -12 -10 -20 -40 -27 -22 -5
-34 -9 -25 -10 14 -1 35 -50 30 -73 0 -5 5 -8 12 -8 8 0 22 -9 32 -20 10 -11
24 -20 32 -20 7 0 24 -7 38 -16 19 -12 46 -14 137 -11 103 3 170 15 333 58 48
13 226 124 310 194 102 85 192 191 240 285 72 144 148 480 123 550 -13 38 -54
41 -86 7z"/>
<path d="M6200 7661 c0 -11 -4 -23 -10 -26 -5 -3 -10 -14 -10 -25 0 -21 -84
-234 -106 -267 -7 -12 -14 -28 -14 -35 1 -15 50 42 50 58 0 5 8 19 18 30 34
38 59 99 72 179 4 28 11 62 15 78 5 17 3 27 -4 27 -6 0 -11 -9 -11 -19z"/>
<path d="M6026 7265 c-3 -8 -1 -15 4 -15 6 0 10 7 10 15 0 8 -2 15 -4 15 -2 0
-6 -7 -10 -15z"/>
<path d="M5925 7147 c-25 -29 -26 -40 -2 -18 15 14 27 26 27 28 0 7 -16 1 -25
-10z"/>
<path d="M5855 7079 c-16 -15 -27 -31 -24 -33 3 -3 18 8 34 24 37 39 29 46
-10 9z"/>
<path d="M5600 6880 c0 -13 11 -13 30 0 12 8 11 10 -7 10 -13 0 -23 -4 -23
-10z"/>
<path d="M5721 6389 c-13 -5 -38 -16 -55 -23 -17 -8 -56 -23 -86 -35 -65 -24
-46 -28 25 -5 61 19 176 74 155 73 -8 0 -26 -5 -39 -10z"/>
<path d="M5468 6293 c7 -3 16 -2 19 1 4 3 -2 6 -13 5 -11 0 -14 -3 -6 -6z"/>
<path d="M5308 6261 c12 -7 62 -4 62 5 0 2 -17 4 -37 4 -24 0 -33 -3 -25 -9z"/>
<path d="M5238 6243 c6 -2 18 -2 25 0 6 3 1 5 -13 5 -14 0 -19 -2 -12 -5z"/>
<path d="M6698 5643 c6 -2 18 -2 25 0 6 3 1 5 -13 5 -14 0 -19 -2 -12 -5z"/>
<path d="M7407 5325 c-18 -13 -18 -14 1 -24 16 -9 21 -7 25 9 7 26 -4 32 -26
15z"/>
<path d="M6304 4762 c-6 -4 -13 -14 -17 -22 -4 -8 -15 -26 -24 -40 -17 -25
-17 -25 2 -10 34 26 42 35 49 58 8 24 7 26 -10 14z"/>
<path d="M6130 4716 c0 -21 6 -36 15 -40 12 -4 15 3 15 34 0 29 -4 40 -15 40
-10 0 -15 -10 -15 -34z"/>
<path d="M6190 4630 c-13 -8 -12 -10 3 -10 9 0 17 5 17 10 0 12 -1 12 -20 0z"/>
<path d="M8640 3178 c-63 -33 -99 -82 -101 -140 -2 -39 4 -54 35 -97 42 -57
79 -81 126 -81 72 0 159 75 179 156 16 61 -2 109 -57 151 -54 41 -115 45 -182
11z"/>
<path d="M1411 3198 c-19 -7 -49 -27 -68 -45 -44 -44 -45 -92 -3 -154 31 -48
127 -125 167 -135 71 -18 154 38 174 117 15 56 9 83 -31 138 -51 69 -159 105
-239 79z"/>
<path d="M5195 4703 c-34 -8 -39 -22 -11 -29 29 -7 76 9 76 26 0 10 -29 12
-65 3z"/>
<path d="M5190 4266 c0 -9 5 -16 10 -16 6 0 10 4 10 9 0 6 -4 13 -10 16 -5 3
-10 -1 -10 -9z"/>
<path d="M5149 4181 c-13 -11 -19 -20 -14 -20 14 0 50 28 43 34 -3 3 -16 -3
-29 -14z"/>
<path d="M5174 4145 c-4 -11 -12 -23 -18 -27 -8 -5 -8 -8 0 -8 17 0 37 27 31
42 -3 9 -7 6 -13 -7z"/>
<path d="M5108 4033 c9 -7 10 -17 1 -41 -7 -22 -7 -36 0 -49 9 -16 10 -14 11
11 0 23 3 26 14 17 9 -8 16 -8 20 -2 4 5 0 13 -8 18 -7 4 -15 17 -17 27 -2 11
-11 21 -19 23 -11 3 -12 2 -2 -4z"/>
<path d="M5133 3533 c-17 -35 -4 -51 13 -17 8 15 11 31 7 35 -4 4 -13 -4 -20
-18z"/>
<path d="M5060 3409 c0 -5 5 -7 10 -4 6 3 10 8 10 11 0 2 -4 4 -10 4 -5 0 -10
-5 -10 -11z"/>
<path d="M5077 3236 c-4 -10 -1 -13 9 -9 8 3 14 -1 14 -11 0 -9 5 -16 10 -16
13 0 12 11 -4 33 -16 21 -22 21 -29 3z"/>
<path d="M5060 3001 c0 -6 5 -13 10 -16 6 -3 10 1 10 9 0 9 -4 16 -10 16 -5 0
-10 -4 -10 -9z"/>
<path d="M5040 2910 c0 -5 5 -10 11 -10 5 0 7 5 4 10 -3 6 -8 10 -11 10 -2 0
-4 -4 -4 -10z"/>
<path d="M5020 2869 c0 -11 4 -18 10 -14 5 3 7 12 3 20 -7 21 -13 19 -13 -6z"/>
<path d="M5055 2830 c-3 -5 1 -10 9 -10 9 0 16 5 16 10 0 6 -4 10 -9 10 -6 0
-13 -4 -16 -10z"/>
<path d="M4997 2803 c-12 -12 -7 -23 7 -17 11 4 16 -4 18 -28 3 -27 6 -30 12
-15 5 11 4 28 -4 43 -14 25 -22 29 -33 17z"/>
<path d="M4927 2634 c-9 -10 2 -24 18 -24 9 0 12 6 9 15 -6 16 -17 19 -27 9z"/>
<path d="M4885 2520 c3 -5 8 -10 11 -10 2 0 4 5 4 10 0 6 -5 10 -11 10 -5 0
-7 -4 -4 -10z"/>
<path d="M4900 2290 c0 -5 5 -10 10 -10 6 0 10 5 10 10 0 6 -4 10 -10 10 -5 0
-10 -4 -10 -10z"/>
<path d="M4870 2160 c0 -5 5 -10 11 -10 5 0 7 5 4 10 -3 6 -8 10 -11 10 -2 0
-4 -4 -4 -10z"/>
<path d="M5836 3991 c-3 -5 2 -11 12 -14 9 -2 26 -8 37 -12 17 -7 16 -5 -4 13
-26 24 -37 27 -45 13z"/>
<path d="M4040 3370 c0 -5 5 -10 10 -10 6 0 10 5 10 10 0 6 -4 10 -10 10 -5 0
-10 -4 -10 -10z"/>
<path d="M3495 2810 c3 -5 8 -10 11 -10 2 0 4 5 4 10 0 6 -5 10 -11 10 -5 0
-7 -4 -4 -10z"/>
<path d="M3256 2731 c-4 -5 -2 -12 3 -15 5 -4 12 -2 15 3 4 5 2 12 -3 15 -5 4
-12 2 -15 -3z"/>
<path d="M3135 2590 c4 -6 11 -8 16 -5 14 9 11 15 -7 15 -8 0 -12 -5 -9 -10z"/>
<path d="M3000 2393 c1 -23 18 -33 41 -24 24 10 24 10 2 10 -13 1 -23 6 -23
11 0 6 -4 10 -10 10 -5 0 -10 -3 -10 -7z"/>
<path d="M2841 2364 c0 -11 3 -14 6 -6 3 7 2 16 -1 19 -3 4 -6 -2 -5 -13z"/>
<path d="M2890 2349 c0 -5 5 -7 10 -4 6 3 10 8 10 11 0 2 -4 4 -10 4 -5 0 -10
-5 -10 -11z"/>
<path d="M2866 2246 c3 -9 11 -16 16 -16 13 0 5 23 -10 28 -7 2 -10 -2 -6 -12z"/>
<path d="M2535 2031 c-3 -5 -1 -12 5 -16 5 -3 10 1 10 9 0 18 -6 21 -15 7z"/>
<path d="M2675 2030 c3 -5 8 -10 11 -10 2 0 4 5 4 10 0 6 -5 10 -11 10 -5 0
-7 -4 -4 -10z"/>
<path d="M2414 1974 c4 -9 1 -23 -5 -30 -15 -19 9 -19 34 0 16 12 16 14 2 20
-9 3 -13 10 -10 16 3 5 -1 10 -10 10 -12 0 -15 -5 -11 -16z"/>
<path d="M2350 1920 c0 -5 7 -10 15 -10 8 0 15 5 15 10 0 6 -7 10 -15 10 -8 0
-15 -4 -15 -10z"/>
<path d="M2417 1883 c-12 -12 -7 -22 8 -17 8 4 15 10 15 15 0 11 -14 12 -23 2z"/>
<path d="M2290 1824 c0 -8 5 -12 10 -9 6 4 8 11 5 16 -9 14 -15 11 -15 -7z"/>
<path d="M2270 1750 c19 -13 30 -13 30 0 0 6 -10 10 -22 10 -19 0 -20 -2 -8
-10z"/>
<path d="M1878 1513 c7 -3 16 -2 19 1 4 3 -2 6 -13 5 -11 0 -14 -3 -6 -6z"/>
<path d="M6348 3413 c6 -2 12 -11 12 -18 0 -8 5 -17 10 -20 6 -4 10 5 10 19 0
21 -5 26 -22 25 -13 0 -17 -3 -10 -6z"/>
<path d="M6281 3354 c0 -11 3 -14 6 -6 3 7 2 16 -1 19 -3 4 -6 -2 -5 -13z"/>
<path d="M6337 3343 c-12 -11 -8 -23 8 -23 8 0 15 7 15 15 0 16 -12 20 -23 8z"/>
<path d="M6400 3310 c0 -5 4 -10 9 -10 6 0 13 5 16 10 3 6 -1 10 -9 10 -9 0
-16 -4 -16 -10z"/>
<path d="M6485 3270 c-3 -5 1 -10 10 -10 9 0 13 5 10 10 -3 6 -8 10 -10 10 -2
0 -7 -4 -10 -10z"/>
<path d="M6508 3163 c6 -2 18 -2 25 0 6 3 1 5 -13 5 -14 0 -19 -2 -12 -5z"/>
<path d="M7050 2710 c0 -5 5 -10 10 -10 6 0 10 5 10 10 0 6 -4 10 -10 10 -5 0
-10 -4 -10 -10z"/>
<path d="M7143 2613 c9 -9 19 -14 23 -11 10 10 -6 28 -24 28 -15 0 -15 -1 1
-17z"/>
<path d="M7234 2495 c-4 -9 -2 -21 5 -28 8 -8 11 -8 11 1 0 7 13 12 30 12 17
0 30 5 30 10 0 6 -9 10 -19 10 -11 0 -26 3 -35 6 -10 4 -18 0 -22 -11z"/>
<path d="M7385 2430 c-3 -5 -1 -10 4 -10 6 0 11 5 11 10 0 6 -2 10 -4 10 -3 0
-8 -4 -11 -10z"/>
<path d="M7420 2340 c0 -5 7 -10 15 -10 8 0 15 5 15 10 0 6 -7 10 -15 10 -8 0
-15 -4 -15 -10z"/>
<path d="M7470 2320 c0 -5 5 -10 10 -10 6 0 10 5 10 10 0 6 -4 10 -10 10 -5 0
-10 -4 -10 -10z"/>
<path d="M7520 2290 c0 -5 5 -10 10 -10 6 0 10 5 10 10 0 6 -4 10 -10 10 -5 0
-10 -4 -10 -10z"/>
<path d="M7620 2246 c0 -9 7 -16 16 -16 9 0 14 5 12 12 -6 18 -28 21 -28 4z"/>
<path d="M7640 2176 c0 -39 3 -46 20 -46 11 0 20 7 20 15 0 22 32 55 55 56 20
0 20 0 0 9 -14 5 -26 2 -41 -11 -24 -23 -48 -25 -41 -4 4 8 2 17 -3 20 -6 4
-10 -13 -10 -39z"/>
<path d="M7661 2111 c-10 -7 -8 -12 10 -25 28 -19 49 -5 29 19 -14 17 -20 18
-39 6z"/>
<path d="M7733 2103 c9 -2 25 -2 35 0 9 3 1 5 -18 5 -19 0 -27 -2 -17 -5z"/>
<path d="M8320 1820 c0 -5 5 -10 10 -10 6 0 10 5 10 10 0 6 -4 10 -10 10 -5 0
-10 -4 -10 -10z"/>
<path d="M8298 1783 c7 -3 16 -2 19 1 4 3 -2 6 -13 5 -11 0 -14 -3 -6 -6z"/>
<path d="M8345 1740 c-3 -5 3 -10 15 -10 12 0 18 5 15 10 -3 6 -10 10 -15 10
-5 0 -12 -4 -15 -10z"/>
<path d="M8420 1650 c-12 -7 -12 -12 -3 -21 10 -10 14 -9 19 5 8 22 2 27 -16
16z"/>
<path d="M6475 1671 c-52 -12 -69 -23 -121 -75 -84 -85 -114 -151 -114 -255 0
-75 2 -82 31 -115 17 -19 55 -47 85 -62 50 -24 62 -26 132 -21 84 6 208 50
250 90 53 50 67 148 32 226 -11 24 -20 52 -20 63 0 21 -24 70 -49 101 -39 48
-140 69 -226 48z"/>
<path d="M7266 1105 c-9 -26 -7 -32 5 -12 6 10 9 21 6 23 -2 3 -7 -2 -11 -11z"/>
<path d="M6762 893 c-5 -10 -7 -23 -5 -29 5 -15 -32 -25 -45 -12 -6 6 -13 5
-18 -3 -4 -7 -3 -14 4 -17 7 -2 10 -8 6 -13 -3 -5 2 -9 10 -9 9 0 16 5 16 10
0 6 11 16 25 22 14 6 25 19 25 30 0 10 5 18 10 18 6 0 10 5 10 10 0 17 -29 11
-38 -7z"/>
<path d="M6533 763 c9 -2 23 -2 30 0 6 3 -1 5 -18 5 -16 0 -22 -2 -12 -5z"/>
<path d="M6286 735 c8 -19 41 -38 48 -27 3 5 -8 16 -24 26 -26 15 -29 15 -24
1z"/>
<path d="M6411 726 c-10 -12 -8 -13 8 -9 12 3 21 9 21 14 0 14 -16 11 -29 -5z"/>
<path d="M6475 730 c-3 -5 -1 -10 4 -10 6 0 11 5 11 10 0 6 -2 10 -4 10 -3 0
-8 -4 -11 -10z"/>
<path d="M6160 704 c0 -8 5 -12 10 -9 6 3 10 10 10 16 0 5 -4 9 -10 9 -5 0
-10 -7 -10 -16z"/>
<path d="M6067 620 c-18 -29 -18 -30 1 -30 14 0 21 8 24 30 3 17 2 30 -2 30
-3 0 -14 -13 -23 -30z"/>
<path d="M5727 564 c-13 -13 -7 -24 14 -24 11 0 19 5 17 12 -5 14 -22 21 -31
12z"/>
<path d="M3960 2390 c0 -5 7 -10 15 -10 8 0 15 5 15 10 0 6 -7 10 -15 10 -8 0
-15 -4 -15 -10z"/>
<path d="M4081 2334 c0 -11 3 -14 6 -6 3 7 2 16 -1 19 -3 4 -6 -2 -5 -13z"/>
<path d="M4096 2311 c-4 -7 -5 -15 -2 -18 9 -9 19 4 14 18 -4 11 -6 11 -12 0z"/>
<path d="M4010 2300 c0 -5 5 -10 11 -10 5 0 7 5 4 10 -3 6 -8 10 -11 10 -2 0
-4 -4 -4 -10z"/>
<path d="M4066 2285 c-8 -23 -8 -35 3 -35 13 0 23 32 13 42 -6 6 -12 3 -16 -7z"/>
<path d="M3967 2163 c-4 -3 -7 -11 -7 -17 0 -6 5 -5 12 2 6 6 9 14 7 17 -3 3
-9 2 -12 -2z"/>
<path d="M3901 2144 c0 -11 3 -14 6 -6 3 7 2 16 -1 19 -3 4 -6 -2 -5 -13z"/>
<path d="M3673 2112 c-33 -40 -34 -53 -4 -45 13 3 18 10 14 20 -4 9 3 22 17
33 12 9 18 20 13 23 -5 3 -23 -11 -40 -31z"/>
<path d="M3724 2075 c8 -8 22 -12 30 -9 27 10 18 24 -15 24 -27 0 -29 -2 -15
-15z"/>
<path d="M3720 2020 c0 -5 5 -10 10 -10 6 0 10 5 10 10 0 6 -4 10 -10 10 -5 0
-10 -4 -10 -10z"/>
<path d="M3718 1983 c7 -3 16 -2 19 1 4 3 -2 6 -13 5 -11 0 -14 -3 -6 -6z"/>
<path d="M3600 1688 c-69 -15 -76 -26 -62 -96 7 -32 12 -63 12 -70 0 -6 -25
-23 -55 -37 -71 -34 -78 -48 -65 -131 21 -129 94 -227 180 -239 131 -18 274
35 316 117 13 24 15 51 12 117 -9 162 -96 306 -206 339 -45 14 -69 14 -132 0z"/>
<path d="M4142 1679 c2 -6 8 -10 13 -10 5 0 11 4 13 10 2 6 -4 11 -13 11 -9 0
-15 -5 -13 -11z"/>
<path d="M4198 1583 c6 -2 18 -2 25 0 6 3 1 5 -13 5 -14 0 -19 -2 -12 -5z"/>
<path d="M4163 1513 c9 -2 23 -2 30 0 6 3 -1 5 -18 5 -16 0 -22 -2 -12 -5z"/>
<path d="M4145 641 c-3 -5 -1 -12 5 -16 5 -3 10 1 10 9 0 18 -6 21 -15 7z"/>
<path d="M4093 624 c-8 -22 5 -30 23 -12 14 14 14 16 -1 21 -9 4 -18 1 -22 -9z"/>
</g>
</svg>
